<svg id="visual" viewBox="0 0 900 675" width="900" height="675" xmlns="http://www.w3.org/2000/svg" xmlns:xlink="http://www.w3.org/1999/xlink" version="1.1"><path d="M0 179L21.5 194C43 209 86 239 128.8 241.5C171.7 244 214.3 219 257.2 219.7C300 220.3 343 246.7 385.8 259.5C428.7 272.3 471.3 271.7 514.2 255.7C557 239.7 600 208.3 642.8 203.3C685.7 198.3 728.3 219.7 771.2 224.5C814 229.3 857 217.7 878.5 211.8L900 206L900 0L878.5 0C857 0 814 0 771.2 0C728.3 0 685.7 0 642.8 0C600 0 557 0 514.2 0C471.3 0 428.7 0 385.8 0C343 0 300 0 257.2 0C214.3 0 171.7 0 128.8 0C86 0 43 0 21.5 0L0 0Z" fill="#fa7268"></path><path d="M0 212L21.5 205.8C43 199.7 86 187.3 128.8 185.3C171.7 183.3 214.3 191.7 257.2 196.3C300 201 343 202 385.8 194.5C428.7 187 471.3 171 514.2 166.5C557 162 600 169 642.8 167C685.7 165 728.3 154 771.2 160.5C814 167 857 191 878.5 203L900 215L900 0L878.5 0C857 0 814 0 771.2 0C728.3 0 685.7 0 642.8 0C600 0 557 0 514.2 0C471.3 0 428.7 0 385.8 0C343 0 300 0 257.2 0C214.3 0 171.7 0 128.8 0C86 0 43 0 21.5 0L0 0Z" fill="#ef5f67"></path><path d="M0 149L21.5 142.8C43 136.7 86 124.3 128.8 118.5C171.7 112.7 214.3 113.3 257.2 114.2C300 115 343 116 385.8 123.5C428.7 131 471.3 145 514.2 147.2C557 149.3 600 139.7 642.8 141.8C685.7 144 728.3 158 771.2 158.7C814 159.3 857 146.7 878.5 140.3L900 134L900 0L878.5 0C857 0 814 0 771.2 0C728.3 0 685.7 0 642.8 0C600 0 557 0 514.2 0C471.3 0 428.7 0 385.8 0C343 0 300 0 257.2 0C214.3 0 171.7 0 128.8 0C86 0 43 0 21.5 0L0 0Z" fill="#e34c67"></path><path d="M0 91L21.5 90.8C43 90.7 86 90.3 128.8 91.2C171.7 92 214.3 94 257.2 98.3C300 102.7 343 109.3 385.8 115.2C428.7 121 471.3 126 514.2 125.3C557 124.7 600 118.3 642.8 110.8C685.7 103.3 728.3 94.7 771.2 90.5C814 86.3 857 86.7 878.5 86.8L900 87L900 0L878.5 0C857 0 814 0 771.2 0C728.3 0 685.7 0 642.8 0C600 0 557 0 514.2 0C471.3 0 428.7 0 385.8 0C343 0 300 0 257.2 0C214.3 0 171.7 0 128.8 0C86 0 43 0 21.5 0L0 0Z" fill="#d53867"></path><path d="M0 59L21.5 55C43 51 86 43 128.8 39.8C171.7 36.7 214.3 38.3 257.2 39.3C300 40.3 343 40.7 385.8 38.8C428.7 37 471.3 33 514.2 37.8C557 42.7 600 56.3 642.8 64.5C685.7 72.7 728.3 75.3 771.2 70.5C814 65.7 857 53.3 878.5 47.2L900 41L900 0L878.5 0C857 0 814 0 771.2 0C728.3 0 685.7 0 642.8 0C600 0 557 0 514.2 0C471.3 0 428.7 0 385.8 0C343 0 300 0 257.2 0C214.3 0 171.7 0 128.8 0C86 0 43 0 21.5 0L0 0Z" fill="#c62368"></path></svg>