<svg id="visual" viewBox="0 0 900 600" width="900" height="600" xmlns="http://www.w3.org/2000/svg" xmlns:xlink="http://www.w3.org/1999/xlink" version="1.1"><path d="M0 19L25 35C50 51 100 83 150 102C200 121 250 127 300 121C350 115 400 97 450 89C500 81 550 83 600 84C650 85 700 85 750 79C800 73 850 61 875 55L900 49L900 0L875 0C850 0 800 0 750 0C700 0 650 0 600 0C550 0 500 0 450 0C400 0 350 0 300 0C250 0 200 0 150 0C100 0 50 0 25 0L0 0Z" fill="#009473"></path><path d="M0 331L25 316C50 301 100 271 150 252C200 233 250 225 300 211C350 197 400 177 450 184C500 191 550 225 600 254C650 283 700 307 750 289C800 271 850 211 875 181L900 151L900 47L875 53C850 59 800 71 750 77C700 83 650 83 600 82C550 81 500 79 450 87C400 95 350 113 300 119C250 125 200 119 150 100C100 81 50 49 25 33L0 17Z" fill="#038b6a"></path><path d="M0 331L25 318C50 305 100 279 150 265C200 251 250 249 300 243C350 237 400 227 450 237C500 247 550 277 600 296C650 315 700 323 750 298C800 273 850 215 875 186L900 157L900 149L875 179C850 209 800 269 750 287C700 305 650 281 600 252C550 223 500 189 450 182C400 175 350 195 300 209C250 223 200 231 150 250C100 269 50 299 25 314L0 329Z" fill="#058362"></path><path d="M0 337L25 329C50 321 100 305 150 300C200 295 250 301 300 300C350 299 400 291 450 296C500 301 550 319 600 329C650 339 700 341 750 327C800 313 850 283 875 268L900 253L900 155L875 184C850 213 800 271 750 296C700 321 650 313 600 294C550 275 500 245 450 235C400 225 350 235 300 241C250 247 200 249 150 263C100 277 50 303 25 316L0 329Z" fill="#067a5a"></path><path d="M0 355L25 346C50 337 100 319 150 321C200 323 250 345 300 347C350 349 400 331 450 329C500 327 550 341 600 356C650 371 700 387 750 373C800 359 850 315 875 293L900 271L900 251L875 266C850 281 800 311 750 325C700 339 650 337 600 327C550 317 500 299 450 294C400 289 350 297 300 298C250 299 200 293 150 298C100 303 50 319 25 327L0 335Z" fill="#067152"></path><path d="M0 391L25 376C50 361 100 331 150 332C200 333 250 365 300 373C350 381 400 365 450 362C500 359 550 369 600 380C650 391 700 403 750 395C800 387 850 359 875 345L900 331L900 269L875 291C850 313 800 357 750 371C700 385 650 369 600 354C550 339 500 325 450 327C400 329 350 347 300 345C250 343 200 321 150 319C100 317 50 335 25 344L0 353Z" fill="#06694a"></path><path d="M0 469L25 463C50 457 100 445 150 441C200 437 250 441 300 440C350 439 400 433 450 437C500 441 550 455 600 457C650 459 700 449 750 449C800 449 850 459 875 464L900 469L900 329L875 343C850 357 800 385 750 393C700 401 650 389 600 378C550 367 500 357 450 360C400 363 350 379 300 371C250 363 200 331 150 330C100 329 50 359 25 374L0 389Z" fill="#066142"></path><path d="M0 505L25 501C50 497 100 489 150 482C200 475 250 469 300 465C350 461 400 459 450 460C500 461 550 465 600 466C650 467 700 465 750 468C800 471 850 479 875 483L900 487L900 467L875 462C850 457 800 447 750 447C700 447 650 457 600 455C550 453 500 439 450 435C400 431 350 437 300 438C250 439 200 435 150 439C100 443 50 455 25 461L0 467Z" fill="#05593b"></path><path d="M0 547L25 540C50 533 100 519 150 507C200 495 250 485 300 482C350 479 400 483 450 491C500 499 550 511 600 515C650 519 700 515 750 516C800 517 850 523 875 526L900 529L900 485L875 481C850 477 800 469 750 466C700 463 650 465 600 464C550 463 500 459 450 458C400 457 350 459 300 463C250 467 200 473 150 480C100 487 50 495 25 499L0 503Z" fill="#035034"></path><path d="M0 577L25 569C50 561 100 545 150 533C200 521 250 513 300 519C350 525 400 545 450 554C500 563 550 561 600 563C650 565 700 571 750 567C800 563 850 549 875 542L900 535L900 527L875 524C850 521 800 515 750 514C700 513 650 517 600 513C550 509 500 497 450 489C400 481 350 477 300 480C250 483 200 493 150 505C100 517 50 531 25 538L0 545Z" fill="#02482d"></path><path d="M0 589L25 584C50 579 100 569 150 563C200 557 250 555 300 556C350 557 400 561 450 569C500 577 550 589 600 593C650 597 700 593 750 588C800 583 850 577 875 574L900 571L900 533L875 540C850 547 800 561 750 565C700 569 650 563 600 561C550 559 500 561 450 552C400 543 350 523 300 517C250 511 200 519 150 531C100 543 50 559 25 567L0 575Z" fill="#014126"></path><path d="M0 601L25 601C50 601 100 601 150 601C200 601 250 601 300 601C350 601 400 601 450 601C500 601 550 601 600 601C650 601 700 601 750 601C800 601 850 601 875 601L900 601L900 569L875 572C850 575 800 581 750 586C700 591 650 595 600 591C550 587 500 575 450 567C400 559 350 555 300 554C250 553 200 555 150 561C100 567 50 577 25 582L0 587Z" fill="#003920"></path></svg>