<svg id="visual" viewBox="0 0 900 600" width="900" height="600" xmlns="http://www.w3.org/2000/svg" xmlns:xlink="http://www.w3.org/1999/xlink" version="1.1"><path d="M0 250L8.3 260.5C16.7 271 33.3 292 50 307.3C66.7 322.7 83.3 332.3 100 339.2C116.7 346 133.3 350 150 339.2C166.7 328.3 183.3 302.7 200 290C216.7 277.3 233.3 277.7 250 290.7C266.7 303.7 283.3 329.3 300 341.2C316.7 353 333.3 351 350 339.7C366.7 328.3 383.3 307.7 400 289.8C416.7 272 433.3 257 450 262.7C466.7 268.3 483.3 294.7 500 307C516.7 319.3 533.3 317.7 550 313.3C566.7 309 583.3 302 600 297.2C616.7 292.3 633.3 289.7 650 294.2C666.7 298.7 683.3 310.3 700 305C716.7 299.7 733.3 277.3 750 265.2C766.7 253 783.3 251 800 260.7C816.7 270.3 833.3 291.7 850 300.3C866.7 309 883.3 305 891.7 303L900 301L900 601L891.7 601C883.3 601 866.7 601 850 601C833.3 601 816.7 601 800 601C783.3 601 766.7 601 750 601C733.3 601 716.7 601 700 601C683.3 601 666.7 601 650 601C633.3 601 616.7 601 600 601C583.3 601 566.7 601 550 601C533.3 601 516.7 601 500 601C483.3 601 466.7 601 450 601C433.3 601 416.7 601 400 601C383.3 601 366.7 601 350 601C333.3 601 316.7 601 300 601C283.3 601 266.7 601 250 601C233.3 601 216.7 601 200 601C183.3 601 166.7 601 150 601C133.3 601 116.7 601 100 601C83.3 601 66.7 601 50 601C33.3 601 16.7 601 8.3 601L0 601Z" fill="#000000" stroke-linecap="round" stroke-linejoin="miter"></path></svg>